<?xml version="1.0" standalone="no"?>
<!DOCTYPE svg PUBLIC "-//W3C//DTD SVG 20010904//EN"
 "http://www.w3.org/TR/2001/REC-SVG-20010904/DTD/svg10.dtd">
<svg version="1.0" xmlns="http://www.w3.org/2000/svg"
 width="3269.000000pt" height="2100.000000pt" viewBox="0 0 3269.000000 2100.000000"
 preserveAspectRatio="xMidYMid meet">
<metadata>
Created by potrace 1.16, written by Peter Selinger 2001-2019
</metadata>
<g transform="translate(0.000000,2100.000000) scale(0.100000,-0.100000)"
fill="#000000" stroke="none">
<path d="M16026 15713 c-3 -10 -24 -115 -46 -233 -23 -118 -43 -223 -46 -232
-4 -14 -16 -18 -59 -18 l-53 0 -143 245 -144 244 -395 0 -395 0 42 -37 c22
-20 104 -95 181 -165 l139 -129 42 -132 41 -132 0 -202 0 -202 1120 0 1120 0
0 232 0 233 36 108 36 107 169 156 c93 86 169 158 169 160 0 2 -175 4 -389 4
l-389 0 -144 -242 -144 -243 -46 -3 c-42 -3 -48 -1 -53 20 -6 26 -95 470 -95
475 0 2 -123 3 -274 3 -253 0 -275 -1 -280 -17z"/>
<path d="M15136 14278 c-102 -510 -294 -1201 -462 -1662 -52 -142 -54 -152
-37 -164 10 -7 59 -39 108 -71 602 -388 1013 -1131 1141 -2064 17 -127 17
-128 -3 -142 -53 -37 -70 -157 -32 -224 55 -96 183 -117 270 -44 62 53 59 -9
59 1183 l0 1090 -52 26 c-117 59 -217 200 -241 338 -29 168 56 356 204 455
284 190 662 24 721 -317 21 -123 -22 -270 -109 -371 -45 -53 -136 -114 -204
-136 l-49 -17 0 -1076 c0 -1027 1 -1079 19 -1118 61 -133 261 -134 322 -1 32
71 19 150 -36 207 l-24 25 24 160 c139 941 566 1686 1176 2053 43 26 78 52 79
59 0 6 -29 91 -63 190 -175 491 -338 1080 -443 1598 -19 94 -36 180 -39 193
l-5 22 -1143 0 -1143 0 -38 -192z"/>
<path d="M8110 9087 c0 -8 9 -40 20 -72 20 -57 20 -84 20 -1185 0 -1101 0
-1128 -20 -1185 -11 -32 -20 -64 -20 -72 0 -11 85 -13 480 -13 386 0 480 3
480 13 0 15 28 239 35 285 l6 32 -321 0 -320 0 0 390 0 390 93 0 c68 0 110 -6
152 -20 32 -11 62 -20 67 -20 4 0 8 90 8 200 0 110 -4 200 -8 200 -5 0 -35 -9
-67 -20 -42 -14 -84 -20 -152 -20 l-93 0 0 390 0 390 320 0 321 0 -6 33 c-7
45 -35 269 -35 284 0 10 -94 13 -480 13 -395 0 -480 -2 -480 -13z"/>
<path d="M9952 9055 c18 -25 36 -51 41 -58 4 -6 68 -272 142 -589 l134 -578
-136 -582 c-134 -574 -136 -583 -175 -635 l-39 -53 232 0 c216 0 231 1 224 18
-18 47 -14 104 31 389 27 169 50 299 52 288 2 -11 25 -153 51 -315 43 -265 46
-298 34 -329 -7 -18 -13 -37 -13 -42 0 -5 104 -9 230 -9 l231 0 -40 53 c-38
52 -41 62 -176 635 l-137 582 137 578 c113 482 140 583 163 615 62 87 84 77
-178 77 l-232 0 6 -22 c19 -63 15 -107 -30 -394 -27 -170 -50 -301 -51 -293
-88 532 -99 636 -77 692 6 16 -11 17 -226 17 l-231 0 33 -45z"/>
<path d="M11937 9022 l-77 -77 0 -1115 0 -1115 78 -78 77 -77 325 0 325 0 78
78 77 77 0 182 c0 159 3 189 20 233 11 28 20 55 20 60 0 6 -80 10 -204 10
l-205 0 20 -57 c14 -41 19 -83 19 -155 l0 -98 -155 0 -155 0 0 940 0 940 155
0 155 0 0 -98 c0 -72 -5 -114 -19 -155 l-20 -57 205 0 c124 0 204 4 204 10 0
5 -9 32 -20 60 -17 44 -20 74 -20 233 l0 182 -78 78 -77 77 -325 0 -325 0 -78
-78z"/>
<path d="M13786 9073 c4 -16 13 -45 21 -67 11 -31 13 -249 13 -1181 0 -1116 0
-1143 -20 -1200 -11 -32 -20 -60 -20 -62 0 -1 92 -3 205 -3 113 0 205 1 205 3
0 1 -9 26 -20 55 -19 49 -20 76 -20 491 l0 439 142 89 c78 48 145 90 150 91 4
2 8 -234 8 -526 0 -440 -3 -537 -15 -578 -8 -27 -15 -52 -15 -56 0 -5 90 -8
200 -8 110 0 200 4 200 8 0 5 -9 35 -20 67 -20 57 -20 84 -20 1190 0 1106 0
1133 20 1190 11 32 20 64 20 72 0 10 -39 13 -200 13 -222 0 -211 4 -185 -70
12 -35 15 -116 15 -484 l-1 -441 -147 -91 -147 -91 -3 526 c-2 543 -3 535 36
639 3 9 -41 12 -202 12 l-206 0 6 -27z"/>
<path d="M15770 9093 c0 -5 9 -32 20 -61 20 -51 20 -77 20 -1201 0 -1122 0
-1149 -20 -1206 -11 -32 -20 -60 -20 -62 0 -1 216 -3 480 -3 l480 0 4 23 c7
29 36 268 36 290 0 16 -25 17 -315 17 l-315 0 0 390 0 390 88 0 c63 0 106 -6
147 -20 32 -11 64 -20 72 -20 10 0 13 39 13 200 0 161 -3 200 -13 200 -8 0
-40 -9 -72 -20 -41 -14 -84 -20 -147 -20 l-88 0 0 390 0 390 315 0 c290 0 315
1 315 17 0 22 -29 261 -36 291 l-4 22 -480 0 c-264 0 -480 -3 -480 -7z"/>
<path d="M17742 9017 l-82 -82 0 -1110 0 -1110 78 -78 77 -77 170 0 170 0 80
-160 80 -160 157 0 158 0 -79 158 -80 159 80 79 79 79 0 1110 0 1110 -83 83
-82 82 -320 0 -320 0 -83 -83z m558 -1192 l0 -945 -155 0 -155 0 0 945 0 945
155 0 155 0 0 -945z"/>
<path d="M19570 9097 c0 -2 9 -30 20 -62 20 -57 20 -84 20 -1189 l0 -1131 78
-78 77 -77 325 0 325 0 78 78 77 77 0 1121 c0 1095 0 1122 20 1179 11 32 20
64 20 72 0 10 -39 13 -200 13 -110 0 -200 -4 -200 -8 0 -5 9 -35 20 -67 20
-57 20 -84 20 -1102 l0 -1043 -155 0 -155 0 0 1048 c0 1023 0 1050 20 1107 11
32 20 60 20 62 0 1 -92 3 -205 3 -113 0 -205 -2 -205 -3z"/>
<path d="M21560 9093 c0 -5 9 -32 20 -61 20 -51 20 -77 20 -1201 0 -1122 0
-1149 -20 -1206 -11 -32 -20 -60 -20 -62 0 -1 216 -3 480 -3 l480 0 4 23 c7
29 36 268 36 290 0 16 -25 17 -315 17 l-315 0 0 390 0 390 88 0 c63 0 106 -6
147 -20 32 -11 64 -20 72 -20 10 0 13 39 13 200 0 161 -3 200 -13 200 -8 0
-40 -9 -72 -20 -41 -14 -84 -20 -147 -20 l-88 0 0 390 0 390 315 0 c296 0 315
1 315 18 0 22 -28 247 -36 285 l-6 27 -479 0 c-263 0 -479 -3 -479 -7z"/>
<path d="M23450 9097 c0 -2 9 -30 20 -62 20 -57 20 -84 20 -1210 0 -1115 -1
-1154 -19 -1208 l-20 -57 205 0 c112 0 204 2 204 3 0 2 -9 30 -20 62 -19 55
-20 84 -20 547 l0 488 75 0 c41 0 75 -3 75 -7 0 -4 32 -225 71 -492 75 -507
73 -489 42 -583 -5 -17 9 -18 196 -18 149 0 201 3 201 12 0 6 -11 48 -25 92
-17 54 -47 235 -91 540 l-66 459 81 81 81 81 0 555 0 555 -83 83 -82 82 -423
0 c-232 0 -422 -2 -422 -3z m680 -717 l0 -390 -155 0 -155 0 0 390 0 390 155
0 155 0 0 -390z"/>
<path d="M19742 5893 c-60 -21 -144 -102 -173 -165 -32 -73 -32 -202 -1 -268
33 -68 74 -112 133 -145 46 -25 68 -30 145 -33 109 -5 181 13 237 58 l37 31 0
110 0 109 -60 0 -60 0 0 -85 c0 -82 -1 -85 -27 -98 -82 -41 -183 -26 -248 37
-94 90 -83 246 24 321 36 25 54 30 114 33 62 3 78 0 121 -23 27 -14 49 -24 51
-23 1 2 15 20 30 42 l29 38 -29 24 c-17 13 -50 31 -74 39 -57 19 -192 18 -249
-2z"/>
<path d="M12462 5672 l3 -229 30 -49 c19 -30 49 -60 79 -79 42 -25 62 -31 128
-34 123 -5 204 34 251 123 21 38 22 56 25 269 l3 227 -55 0 -55 0 -3 -209 c-3
-193 -5 -212 -24 -237 -37 -51 -71 -69 -125 -68 -61 1 -96 24 -126 84 -22 41
-23 57 -23 237 l0 193 -56 0 -55 0 3 -228z"/>
<path d="M13180 5590 l0 -310 55 0 55 0 2 215 3 214 165 -214 165 -214 63 0
62 -1 0 310 0 310 -55 0 -55 0 -2 -220 -3 -220 -170 220 -170 219 -57 1 -58 0
0 -310z"/>
<path d="M13950 5590 l0 -313 163 5 c136 4 171 9 220 28 110 42 167 127 175
262 6 106 -17 178 -78 238 -70 70 -115 83 -312 88 l-168 4 0 -312z m322 188
c86 -29 123 -86 122 -188 0 -74 -17 -114 -64 -153 -41 -35 -89 -47 -187 -47
l-83 0 0 206 0 207 89 -7 c50 -4 105 -12 123 -18z"/>
<path d="M14680 5590 l0 -310 225 0 225 0 0 55 0 55 -170 0 -170 0 0 75 0 75
145 0 145 0 0 50 0 50 -145 0 -145 0 0 75 0 75 165 0 165 0 0 55 0 55 -220 0
-220 0 0 -310z"/>
<path d="M15290 5591 l0 -311 55 0 55 0 0 105 0 105 64 0 65 0 73 -105 73
-105 73 0 c85 0 87 -11 -16 130 l-70 95 27 11 c66 28 107 118 98 212 -8 73
-33 112 -92 142 -47 23 -62 25 -227 28 l-178 4 0 -311z m305 199 c51 -12 75
-41 75 -92 0 -83 -41 -108 -180 -108 l-90 0 0 105 0 105 78 0 c42 0 95 -5 117
-10z"/>
<path d="M15900 5888 c0 -7 47 -146 104 -308 l104 -295 57 0 57 0 61 197 c33
108 63 195 67 193 3 -2 33 -92 65 -199 l60 -196 55 0 56 0 104 298 c57 163
105 303 108 310 3 10 -10 12 -58 10 l-63 -3 -71 -202 c-39 -111 -74 -199 -77
-195 -4 4 -28 75 -54 157 -25 83 -53 171 -61 198 l-16 47 -51 0 -52 0 -64
-210 c-36 -115 -65 -209 -67 -207 -1 1 -34 95 -74 210 l-73 207 -59 0 c-40 0
-58 -4 -58 -12z"/>
<path d="M16930 5590 l0 -310 55 0 55 0 0 105 0 105 63 0 62 0 74 -105 74
-105 69 0 c37 0 68 3 68 8 0 4 -34 54 -75 112 l-74 104 36 20 c61 35 77 67 82
157 4 92 -7 127 -54 168 -46 40 -108 51 -285 51 l-150 0 0 -310z m304 200 c21
-4 45 -15 53 -22 21 -21 27 -83 13 -119 -19 -44 -61 -59 -170 -59 l-90 0 0
105 0 105 78 0 c42 0 95 -5 116 -10z"/>
<path d="M17610 5590 l0 -310 55 0 55 0 0 310 0 310 -55 0 -55 0 0 -310z"/>
<path d="M17870 5850 l0 -50 90 0 90 0 0 -260 0 -260 55 0 55 0 0 260 0 260
95 0 95 0 0 50 0 50 -240 0 -240 0 0 -50z"/>
<path d="M18490 5590 l0 -310 60 0 60 0 0 310 0 310 -60 0 -60 0 0 -310z"/>
<path d="M18810 5590 l0 -310 55 0 55 0 2 215 3 214 165 -214 165 -214 63 0
62 -1 0 310 0 310 -55 0 -55 0 -2 -220 -3 -220 -170 220 -170 219 -57 1 -58 0
0 -310z"/>
</g>
</svg>
